<svg width="24" height="24" viewBox="0 0 24 24" fill="none" xmlns="http://www.w3.org/2000/svg">
<g clip-path="url(#clip0_542_1819)">
<path fill-rule="evenodd" clip-rule="evenodd" d="M11.9995 24C9.37215 24 8.43746 23.4689 8.43746 22.3153V20.4609C7.72637 20.1621 7.06168 19.7798 6.45184 19.3167L4.84402 20.2439C4.62741 20.3706 4.3764 20.432 4.12402 20.432C2.40324 20.432 0.549805 16.0787 0.549805 15.3414C0.549805 14.8328 0.821961 14.3411 1.28621 14.0725L2.88793 13.1481C2.87855 12.7547 2.85371 12.375 2.85371 11.9578C2.85371 11.5406 2.87862 11.2017 2.92988 10.8108L1.32699 9.92813C0.863398 9.66094 0.591523 9.16875 0.591523 8.65781C0.591523 8.06813 2.37184 3.5625 4.1634 3.5625C4.41732 3.5625 4.67059 3.62522 4.8909 3.7552L6.49168 4.68188C7.10105 4.21922 7.76668 3.83672 8.43699 3.53766V1.68328C8.43699 0.203203 10.1526 0 12.0417 0C13.9031 0 15.562 0.191391 15.562 1.68328V3.53766C16.2731 3.83648 16.9378 4.21875 17.5476 4.68188L19.1554 3.75469C19.372 3.62798 19.6233 3.56658 19.8759 3.56658C21.5854 3.56658 23.4496 7.90486 23.4496 8.6572C23.4496 9.1658 23.1775 9.65752 22.7132 9.92611L21.1115 10.8505C21.1628 11.2416 21.1877 11.6211 21.1877 11.9975C21.1877 12.3739 21.1628 12.7536 21.1115 13.1445L22.7142 14.0703C23.178 14.3377 23.4501 14.8292 23.4501 15.3383C23.4501 15.9285 21.6698 20.4336 19.8778 20.4336C19.6237 20.4336 19.3701 20.3709 19.1507 20.2409L17.5481 19.3165C16.9378 19.7795 16.2736 20.1617 15.5625 20.4608V22.3151C15.6042 23.4656 14.6714 24 11.9995 24ZM6.64637 17.4938C8.33012 18.9384 9.0998 19.1044 9.97684 19.4156V22.3148C10.6382 22.4247 11.3278 22.4895 12.0281 22.4895C12.7289 22.4895 13.4404 22.4247 14.1464 22.2753L14.1017 19.4159C14.855 19.1486 15.7507 18.9368 17.4322 17.494L19.9451 18.9458C20.8254 17.9117 21.5281 16.6972 21.979 15.3565L19.4975 13.924C19.6261 13.2214 19.7252 12.732 19.7252 12.0926C19.7252 11.5793 19.6613 10.969 19.4975 10.0742L22.0034 8.62809C21.5427 7.32731 20.8353 6.09825 19.8893 5.03184L17.4317 6.50419C15.7479 5.0595 14.9782 4.89356 14.1012 4.58231V1.68328C13.4398 1.57341 12.7503 1.50858 12.05 1.50858C11.3492 1.50858 10.6376 1.57341 9.93169 1.72284L9.97637 4.58222C9.22449 4.85156 8.32918 5.02031 6.64637 6.50625L4.13527 5.05313C3.24512 6.09891 2.53777 7.32797 2.0873 8.68453L4.58293 10.0748C4.45449 10.7766 4.35512 11.2688 4.35512 11.8641C4.35512 12.3773 4.41905 12.9877 4.58288 13.8825L2.07695 15.3286C2.53768 16.6294 3.24507 17.8584 4.19101 18.9248L6.64637 17.4938ZM12.0417 16.4578C9.56012 16.4578 7.54168 14.4394 7.54168 11.9578C7.54168 9.47625 9.56199 7.45781 12.0417 7.45781C14.5214 7.45781 16.5417 9.47625 16.5417 11.9578C16.5417 14.4394 14.5214 16.4578 12.0417 16.4578ZM12.0417 8.95781C10.387 8.95781 9.04168 10.3041 9.04168 11.9578C9.04168 13.6116 10.387 14.9578 12.0417 14.9578C13.6964 14.9578 15.0417 13.6116 15.0417 11.9578C15.0417 10.3041 13.6964 8.95781 12.0417 8.95781Z" fill="#1B2221"/>
</g>
<defs>
<clipPath id="clip0_542_1819">
<rect width="24" height="24" fill="white"/>
</clipPath>
</defs>
</svg>
